{
    "asset" : {
        "generator" : "Khronos glTF Blender I/O v3.3.27",
        "version" : "2.0"
    },
    "scene" : 0,
    "scenes" : [
        {
            "name" : "Scene",
            "nodes" : [
                0
            ]
        }
    ],
    "nodes" : [
        {
            "mesh" : 0,
            "name" : "BagaPie_StairSpiral"
        }
    ],
    "meshes" : [
        {
            "name" : "BagaPie_StairSpiral",
            "primitives" : [
                {
                    "attributes" : {
                        "POSITION" : 0,
                        "NORMAL" : 1
                    },
                    "indices" : 2
                }
            ]
        }
    ],
    "accessors" : [
        {
            "bufferView" : 0,
            "componentType" : 5126,
            "count" : 6878,
            "max" : [
                1.149999976158142,
                5.1865410804748535,
                1.149999976158142
            ],
            "min" : [
                -1.149999976158142,
                0,
                -1.149999976158142
            ],
            "type" : "VEC3"
        },
        {
            "bufferView" : 1,
            "componentType" : 5126,
            "count" : 6878,
            "type" : "VEC3"
        },
        {
            "bufferView" : 2,
            "componentType" : 5123,
            "count" : 25740,
            "type" : "SCALAR"
        }
    ],
    "bufferViews" : [
        {
            "buffer" : 0,
            "byteLength" : 82536,
            "byteOffset" : 0,
            "target" : 34962
        },
        {
            "buffer" : 0,
            "byteLength" : 82536,
            "byteOffset" : 82536,
            "target" : 34962
        },
        {
            "buffer" : 0,
            "byteLength" : 51480,
            "byteOffset" : 165072,
            "target" : 34963
        }
    ],
    "buffers" : [
        {
            "byteLength" : 216552,
            "uri" : "data:application/octet-stream;base64,"
        }
    ]
}
